<?xml version="1.0"?>
<svg xmlns="http://www.w3.org/2000/svg" height="512px" viewBox="0 0 496 496" width="512px" class=""><g><path d="m472 274.753906v-42.753906c0-22.054688-17.945312-40-40-40h-20.6875l-155.746094-155.742188c-8.078125-19.257812-16.230468-31.691406-16.910156-32.699218l-2.375-3.558594h-200.5625l-2.375 3.558594c-1.359375 2.042968-33.34375 50.679687-33.34375 108.441406s31.984375 106.398438 33.34375 108.441406l2.375 3.558594h200.5625l2.375-3.558594c1.160156-1.730468 24.34375-37.136718 31.320312-83.144531l116.367188 116.367187-7.128906 28.511719-108.726563 14.496094c-35.625 4.742187-62.488281 35.433594-62.488281 71.359375v31.96875h24v16h-13.480469c-9.007812-18.886719-28.238281-32-50.519531-32-30.878906 0-56 25.128906-56 56s25.121094 56 56 56c22.28125 0 41.511719-13.113281 50.519531-32h138.960938c9.007812 18.886719 28.238281 32 50.519531 32 30.878906 0 56-25.128906 56-56 0-15.664062-6.480469-29.824219-16.886719-40h10.878907c20.960937 0 38.007812-17.046875 38.007812-38.007812v-51.984376c0-16.007812-9.96875-29.664062-24-35.253906zm-216-162.753906h-64v-96h35.542969c7.03125 11.824219 28.457031 51.503906 28.457031 96zm-80-64h-80v-32h80zm-80 16h32v144h-32zm48 0h32v144h-32zm-99.535156-48h35.535156v96h-64c0-44.367188 21.433594-84.152344 28.464844-96zm-27.570313 112h63.105469v80h-35.542969c-6.175781-10.382812-23.441406-42.246094-27.5625-80zm210.640625 80h-35.535156v-80h63.097656c-4.128906 37.664062-21.386718 69.59375-27.5625 80zm39.207032-137.945312 68.105468 68.105468-10.34375 31.03125-52.65625-52.65625c.039063-1.511718.152344-3.007812.152344-4.535156 0-14.800781-2.113281-28.976562-5.257812-41.945312zm70.410156 111.785156 10.34375-31.03125 51.648437 51.640625-8.273437 33.101562zm77.09375 26.160156h17.753906c13.230469 0 24 10.769531 24 24v40.136719c-1.015625.054687-2.039062.0625-3.03125.199219l-56.695312 7.558593zm-147.230469 105.585938c3.191406 4.148437 4.984375 9.125 4.984375 14.414062 0 13.230469-10.769531 24-24 24-7.152344 0-13.625-3.304688-18.152344-8.761719 7.265625-14.605469 20.746094-25.734375 37.167969-29.652343zm-19.015625 86.414062h32v16h-32zm120.886719 0c-4.695313 4.59375-8.542969 10.007812-11.398438 16h-13.488281v-16zm-40.886719 16h-32v-16h32zm-160 64c-22.054688 0-40-17.945312-40-40s17.945312-40 40-40 40 17.945312 40 40-17.945312 40-40 40zm55.359375-32c.375-2.625.640625-5.28125.640625-8s-.265625-5.375-.640625-8h129.28125c-.375 2.625-.640625 5.28125-.640625 8s.265625 5.375.640625 8zm224.640625-8c0 22.054688-17.945312 40-40 40s-40-17.945312-40-40 17.945312-40 40-40 40 17.945312 40 40zm32-78.007812c0 12.136718-9.871094 22.007812-22.007812 22.007812h-233.992188v-15.96875c0-2.605469.238281-5.167969.59375-7.6875 6.6875 4.902344 14.789062 7.65625 23.40625 7.65625 22.054688 0 40-17.945312 40-40 0-6.007812-1.433594-11.742188-3.9375-17.007812l171.050781-22.800782c.949219-.128906 1.910157-.191406 2.878907-.191406 12.136718 0 22.007812 9.871094 22.007812 22.007812zm0 0" data-original="#000000" class="active-path" fill="#000000"/><path d="m168 416c-13.230469 0-24 10.769531-24 24s10.769531 24 24 24 24-10.769531 24-24-10.769531-24-24-24zm0 32c-4.40625 0-8-3.585938-8-8s3.59375-8 8-8 8 3.585938 8 8-3.59375 8-8 8zm0 0" data-original="#000000" class="active-path" fill="#000000"/><path d="m408 464c13.230469 0 24-10.769531 24-24s-10.769531-24-24-24-24 10.769531-24 24 10.769531 24 24 24zm0-32c4.40625 0 8 3.585938 8 8s-3.59375 8-8 8-8-3.585938-8-8 3.59375-8 8-8zm0 0" data-original="#000000" class="active-path" fill="#000000"/><path d="m440.9375 304c-.960938 0-1.921875.0625-2.859375.175781l-95.316406 11.914063c-22.097657 2.757812-38.761719 21.636718-38.761719 43.910156v8h136.9375c12.71875 0 23.0625-10.34375 23.0625-23.0625v-17.875c0-12.71875-10.34375-23.0625-23.0625-23.0625zm7.0625 40.9375c0 3.894531-3.167969 7.0625-7.0625 7.0625h-119.777344c3.121094-10.519531 12.230469-18.609375 23.59375-20.03125l95.324219-11.914062c4.144531-.535157 7.921875 2.824218 7.921875 7.007812zm0 0" data-original="#000000" class="active-path" fill="#000000"/><path d="m208 144h16v16h-16zm0 0" data-original="#000000" class="active-path" fill="#000000"/><path d="m208 176h16v16h-16zm0 0" data-original="#000000" class="active-path" fill="#000000"/><path d="m48 144h16v16h-16zm0 0" data-original="#000000" class="active-path" fill="#000000"/><path d="m48 176h16v16h-16zm0 0" data-original="#000000" class="active-path" fill="#000000"/></g> </svg>
